<mxfile host="app.diagrams.net" modified="2021-03-22T14:44:03.575Z" agent="5.0 (Macintosh; Intel Mac OS X 10_15_7) AppleWebKit/605.1.15 (KHTML, like Gecko) Version/13.1.3 Safari/605.1.15" etag="Ae_UjuvuxraeInD2bkAe" version="14.4.9" type="github">
  <diagram id="fw49n0T_XUWUQFiHfciC" name="Page-1">
    <mxGraphModel dx="1113" dy="654" grid="1" gridSize="10" guides="1" tooltips="1" connect="1" arrows="1" fold="1" page="1" pageScale="1" pageWidth="827" pageHeight="1169" math="0" shadow="0">
      <root>
        <mxCell id="0" />
        <mxCell id="1" parent="0" />
        <mxCell id="jM_k1SBDohhX2evHbiHx-29" value="" style="shape=umlLifeline;participant=umlActor;perimeter=lifelinePerimeter;whiteSpace=wrap;html=1;container=1;collapsible=0;recursiveResize=0;verticalAlign=top;spacingTop=36;outlineConnect=0;" vertex="1" parent="1">
          <mxGeometry x="20" y="110" width="20" height="690" as="geometry" />
        </mxCell>
        <mxCell id="jM_k1SBDohhX2evHbiHx-30" value="Торгова організація" style="shape=umlLifeline;perimeter=lifelinePerimeter;whiteSpace=wrap;html=1;container=1;collapsible=0;recursiveResize=0;outlineConnect=0;" vertex="1" parent="1">
          <mxGeometry x="110" y="110" width="100" height="690" as="geometry" />
        </mxCell>
        <mxCell id="jM_k1SBDohhX2evHbiHx-34" value="" style="rounded=0;whiteSpace=wrap;html=1;" vertex="1" parent="jM_k1SBDohhX2evHbiHx-30">
          <mxGeometry x="45" y="70" width="10" height="30" as="geometry" />
        </mxCell>
        <mxCell id="jM_k1SBDohhX2evHbiHx-42" value="" style="rounded=0;whiteSpace=wrap;html=1;" vertex="1" parent="jM_k1SBDohhX2evHbiHx-30">
          <mxGeometry x="45" y="126" width="10" height="30" as="geometry" />
        </mxCell>
        <mxCell id="jM_k1SBDohhX2evHbiHx-43" value="" style="rounded=0;whiteSpace=wrap;html=1;" vertex="1" parent="jM_k1SBDohhX2evHbiHx-30">
          <mxGeometry x="45" y="197" width="10" height="30" as="geometry" />
        </mxCell>
        <mxCell id="jM_k1SBDohhX2evHbiHx-44" value="" style="rounded=0;whiteSpace=wrap;html=1;" vertex="1" parent="jM_k1SBDohhX2evHbiHx-30">
          <mxGeometry x="45" y="320" width="10" height="30" as="geometry" />
        </mxCell>
        <mxCell id="jM_k1SBDohhX2evHbiHx-46" value="" style="rounded=0;whiteSpace=wrap;html=1;" vertex="1" parent="jM_k1SBDohhX2evHbiHx-30">
          <mxGeometry x="45" y="356" width="10" height="30" as="geometry" />
        </mxCell>
        <mxCell id="jM_k1SBDohhX2evHbiHx-47" value="" style="rounded=0;whiteSpace=wrap;html=1;" vertex="1" parent="jM_k1SBDohhX2evHbiHx-30">
          <mxGeometry x="45" y="468" width="10" height="30" as="geometry" />
        </mxCell>
        <mxCell id="jM_k1SBDohhX2evHbiHx-87" value="" style="rounded=0;whiteSpace=wrap;html=1;" vertex="1" parent="jM_k1SBDohhX2evHbiHx-30">
          <mxGeometry x="45" y="240" width="10" height="30" as="geometry" />
        </mxCell>
        <mxCell id="jM_k1SBDohhX2evHbiHx-31" value="Система" style="shape=umlLifeline;perimeter=lifelinePerimeter;whiteSpace=wrap;html=1;container=1;collapsible=0;recursiveResize=0;outlineConnect=0;" vertex="1" parent="1">
          <mxGeometry x="260" y="110" width="120" height="690" as="geometry" />
        </mxCell>
        <mxCell id="jM_k1SBDohhX2evHbiHx-51" value="" style="rounded=0;whiteSpace=wrap;html=1;" vertex="1" parent="jM_k1SBDohhX2evHbiHx-31">
          <mxGeometry x="45" y="193" width="10" height="30" as="geometry" />
        </mxCell>
        <mxCell id="jM_k1SBDohhX2evHbiHx-52" value="" style="rounded=0;whiteSpace=wrap;html=1;" vertex="1" parent="jM_k1SBDohhX2evHbiHx-31">
          <mxGeometry x="45" y="307" width="10" height="30" as="geometry" />
        </mxCell>
        <mxCell id="jM_k1SBDohhX2evHbiHx-84" value="&lt;span style=&quot;font-family: &amp;#34;helvetica&amp;#34;&quot;&gt;14: Повертає cтан()&lt;/span&gt;" style="text;html=1;align=center;verticalAlign=middle;resizable=0;points=[];autosize=1;" vertex="1" parent="jM_k1SBDohhX2evHbiHx-31">
          <mxGeometry x="-10" y="360" width="130" height="20" as="geometry" />
        </mxCell>
        <mxCell id="jM_k1SBDohhX2evHbiHx-95" value="" style="rounded=0;whiteSpace=wrap;html=1;" vertex="1" parent="jM_k1SBDohhX2evHbiHx-31">
          <mxGeometry x="55" y="487" width="10" height="30" as="geometry" />
        </mxCell>
        <mxCell id="jM_k1SBDohhX2evHbiHx-101" value="" style="rounded=0;whiteSpace=wrap;html=1;" vertex="1" parent="jM_k1SBDohhX2evHbiHx-31">
          <mxGeometry x="55" y="540" width="10" height="30" as="geometry" />
        </mxCell>
        <mxCell id="jM_k1SBDohhX2evHbiHx-32" value="Замовлення" style="shape=umlLifeline;perimeter=lifelinePerimeter;whiteSpace=wrap;html=1;container=1;collapsible=0;recursiveResize=0;outlineConnect=0;" vertex="1" parent="1">
          <mxGeometry x="420" y="240" width="100" height="480" as="geometry" />
        </mxCell>
        <mxCell id="jM_k1SBDohhX2evHbiHx-62" value="" style="rounded=0;whiteSpace=wrap;html=1;" vertex="1" parent="jM_k1SBDohhX2evHbiHx-32">
          <mxGeometry x="45" y="81" width="10" height="30" as="geometry" />
        </mxCell>
        <mxCell id="jM_k1SBDohhX2evHbiHx-105" value="" style="rounded=0;whiteSpace=wrap;html=1;" vertex="1" parent="jM_k1SBDohhX2evHbiHx-32">
          <mxGeometry x="45" y="440" width="10" height="30" as="geometry" />
        </mxCell>
        <mxCell id="jM_k1SBDohhX2evHbiHx-33" value="Доставка" style="shape=umlLifeline;perimeter=lifelinePerimeter;whiteSpace=wrap;html=1;container=1;collapsible=0;recursiveResize=0;outlineConnect=0;" vertex="1" parent="1">
          <mxGeometry x="510" y="600" width="100" height="200" as="geometry" />
        </mxCell>
        <mxCell id="jM_k1SBDohhX2evHbiHx-107" value="" style="rounded=0;whiteSpace=wrap;html=1;" vertex="1" parent="jM_k1SBDohhX2evHbiHx-33">
          <mxGeometry x="45" y="110" width="10" height="30" as="geometry" />
        </mxCell>
        <mxCell id="jM_k1SBDohhX2evHbiHx-39" value="" style="endArrow=classic;html=1;" edge="1" parent="1">
          <mxGeometry width="50" height="50" relative="1" as="geometry">
            <mxPoint x="30" y="182" as="sourcePoint" />
            <mxPoint x="159.5" y="182" as="targetPoint" />
          </mxGeometry>
        </mxCell>
        <mxCell id="jM_k1SBDohhX2evHbiHx-40" value="1: Реєстрація()" style="text;html=1;align=center;verticalAlign=middle;resizable=0;points=[];autosize=1;" vertex="1" parent="1">
          <mxGeometry x="40" y="162" width="100" height="20" as="geometry" />
        </mxCell>
        <mxCell id="jM_k1SBDohhX2evHbiHx-41" value="2: Зареєстрований" style="html=1;verticalAlign=bottom;endArrow=open;dashed=1;endSize=8;exitX=0;exitY=1;exitDx=0;exitDy=0;" edge="1" parent="1" source="jM_k1SBDohhX2evHbiHx-34" target="jM_k1SBDohhX2evHbiHx-29">
          <mxGeometry relative="1" as="geometry">
            <mxPoint x="140" y="210" as="sourcePoint" />
            <mxPoint x="60" y="210" as="targetPoint" />
          </mxGeometry>
        </mxCell>
        <mxCell id="jM_k1SBDohhX2evHbiHx-48" value="" style="endArrow=classic;html=1;" edge="1" parent="1">
          <mxGeometry width="50" height="50" relative="1" as="geometry">
            <mxPoint x="25.25" y="240" as="sourcePoint" />
            <mxPoint x="154.75" y="240" as="targetPoint" />
          </mxGeometry>
        </mxCell>
        <mxCell id="jM_k1SBDohhX2evHbiHx-49" value="3: Пошук товару()" style="text;html=1;align=center;verticalAlign=middle;resizable=0;points=[];autosize=1;" vertex="1" parent="1">
          <mxGeometry x="30" y="220" width="120" height="20" as="geometry" />
        </mxCell>
        <mxCell id="jM_k1SBDohhX2evHbiHx-50" value="" style="rounded=0;whiteSpace=wrap;html=1;" vertex="1" parent="1">
          <mxGeometry x="305" y="240" width="10" height="30" as="geometry" />
        </mxCell>
        <mxCell id="jM_k1SBDohhX2evHbiHx-55" value="" style="endArrow=classic;html=1;exitX=1;exitY=0.25;exitDx=0;exitDy=0;" edge="1" parent="1">
          <mxGeometry width="50" height="50" relative="1" as="geometry">
            <mxPoint x="165" y="244.5" as="sourcePoint" />
            <mxPoint x="308" y="245" as="targetPoint" />
          </mxGeometry>
        </mxCell>
        <mxCell id="jM_k1SBDohhX2evHbiHx-56" value="&lt;span style=&quot;color: rgb(0 , 0 , 0) ; font-family: &amp;#34;helvetica&amp;#34; ; font-size: 12px ; font-style: normal ; font-weight: normal ; letter-spacing: normal ; text-align: center ; text-indent: 0px ; text-transform: none ; word-spacing: 0px ; background-color: rgb(248 , 249 , 250) ; text-decoration: none ; display: inline ; float: none&quot;&gt;4: Добавлення у &amp;nbsp; &amp;nbsp; &amp;nbsp; &amp;nbsp; &amp;nbsp;товару у корзину()&lt;/span&gt;" style="text;whiteSpace=wrap;html=1;" vertex="1" parent="1">
          <mxGeometry x="175" y="200" width="130" height="30" as="geometry" />
        </mxCell>
        <mxCell id="jM_k1SBDohhX2evHbiHx-57" value="5:Товар доданий" style="html=1;verticalAlign=bottom;endArrow=open;dashed=1;endSize=8;exitX=0;exitY=1;exitDx=0;exitDy=0;" edge="1" parent="1">
          <mxGeometry x="-0.5278" relative="1" as="geometry">
            <mxPoint x="305" y="270" as="sourcePoint" />
            <mxPoint x="29.66666666666663" y="270" as="targetPoint" />
            <mxPoint as="offset" />
          </mxGeometry>
        </mxCell>
        <mxCell id="jM_k1SBDohhX2evHbiHx-58" value="" style="endArrow=classic;html=1;" edge="1" parent="1">
          <mxGeometry width="50" height="50" relative="1" as="geometry">
            <mxPoint x="25.25" y="308" as="sourcePoint" />
            <mxPoint x="154.75" y="308" as="targetPoint" />
          </mxGeometry>
        </mxCell>
        <mxCell id="jM_k1SBDohhX2evHbiHx-59" value="&lt;span style=&quot;color: rgb(0 , 0 , 0) ; font-family: &amp;#34;helvetica&amp;#34; ; font-size: 12px ; font-style: normal ; font-weight: normal ; letter-spacing: normal ; text-align: center ; text-indent: 0px ; text-transform: none ; word-spacing: 0px ; background-color: rgb(248 , 249 , 250) ; text-decoration: none ; display: inline ; float: none&quot;&gt;6: Замовлення()&lt;/span&gt;" style="text;whiteSpace=wrap;html=1;" vertex="1" parent="1">
          <mxGeometry x="40" y="283" width="110" height="32" as="geometry" />
        </mxCell>
        <mxCell id="jM_k1SBDohhX2evHbiHx-60" value="&lt;span style=&quot;color: rgb(0 , 0 , 0) ; font-family: &amp;#34;helvetica&amp;#34; ; font-size: 12px ; font-style: normal ; font-weight: normal ; letter-spacing: normal ; text-align: center ; text-indent: 0px ; text-transform: none ; word-spacing: 0px ; background-color: rgb(248 , 249 , 250) ; text-decoration: none ; display: inline ; float: none&quot;&gt;7: Замовлення()&lt;/span&gt;" style="text;whiteSpace=wrap;html=1;" vertex="1" parent="1">
          <mxGeometry x="175" y="290" width="110" height="32" as="geometry" />
        </mxCell>
        <mxCell id="jM_k1SBDohhX2evHbiHx-61" value="" style="endArrow=classic;html=1;" edge="1" parent="1">
          <mxGeometry width="50" height="50" relative="1" as="geometry">
            <mxPoint x="165" y="310" as="sourcePoint" />
            <mxPoint x="304.5" y="310" as="targetPoint" />
          </mxGeometry>
        </mxCell>
        <mxCell id="jM_k1SBDohhX2evHbiHx-64" value="" style="endArrow=classic;html=1;entryX=0.5;entryY=0;entryDx=0;entryDy=0;" edge="1" parent="1" target="jM_k1SBDohhX2evHbiHx-62">
          <mxGeometry width="50" height="50" relative="1" as="geometry">
            <mxPoint x="315" y="322" as="sourcePoint" />
            <mxPoint x="454.5" y="322" as="targetPoint" />
          </mxGeometry>
        </mxCell>
        <mxCell id="jM_k1SBDohhX2evHbiHx-66" value="&lt;span style=&quot;color: rgb(0 , 0 , 0) ; font-family: &amp;#34;helvetica&amp;#34; ; font-size: 12px ; font-style: normal ; font-weight: normal ; letter-spacing: normal ; text-align: center ; text-indent: 0px ; text-transform: none ; word-spacing: 0px ; background-color: rgb(248 , 249 , 250) ; text-decoration: none ; display: inline ; float: none&quot;&gt;&amp;nbsp; &amp;nbsp; &amp;nbsp;&amp;lt;&amp;lt;create&amp;gt;&amp;gt;&lt;br&gt;8: Замовлення()&lt;/span&gt;" style="text;whiteSpace=wrap;html=1;" vertex="1" parent="1">
          <mxGeometry x="340" y="278" width="110" height="32" as="geometry" />
        </mxCell>
        <mxCell id="jM_k1SBDohhX2evHbiHx-67" value="" style="endArrow=classic;html=1;exitX=0;exitY=1;exitDx=0;exitDy=0;" edge="1" parent="1" source="jM_k1SBDohhX2evHbiHx-62" target="jM_k1SBDohhX2evHbiHx-30">
          <mxGeometry width="50" height="50" relative="1" as="geometry">
            <mxPoint x="325" y="332" as="sourcePoint" />
            <mxPoint x="475" y="332" as="targetPoint" />
          </mxGeometry>
        </mxCell>
        <mxCell id="jM_k1SBDohhX2evHbiHx-68" value="&lt;span style=&quot;font-family: &amp;#34;helvetica&amp;#34;&quot;&gt;9: Замовлення створено()&lt;/span&gt;" style="text;html=1;align=center;verticalAlign=middle;resizable=0;points=[];autosize=1;" vertex="1" parent="1">
          <mxGeometry x="220" y="360" width="160" height="20" as="geometry" />
        </mxCell>
        <mxCell id="jM_k1SBDohhX2evHbiHx-69" value="" style="html=1;verticalAlign=bottom;endArrow=open;dashed=1;endSize=8;exitX=0;exitY=1;exitDx=0;exitDy=0;" edge="1" parent="1">
          <mxGeometry relative="1" as="geometry">
            <mxPoint x="165.66000000000003" y="380" as="sourcePoint" />
            <mxPoint x="29.996666666666627" y="379.99999999999994" as="targetPoint" />
          </mxGeometry>
        </mxCell>
        <mxCell id="jM_k1SBDohhX2evHbiHx-70" value="&lt;span style=&quot;font-family: &amp;#34;helvetica&amp;#34;&quot;&gt;10: Створено&lt;/span&gt;" style="text;html=1;align=center;verticalAlign=middle;resizable=0;points=[];autosize=1;" vertex="1" parent="1">
          <mxGeometry x="50" y="380" width="90" height="20" as="geometry" />
        </mxCell>
        <mxCell id="jM_k1SBDohhX2evHbiHx-71" value="" style="endArrow=classic;html=1;" edge="1" parent="1">
          <mxGeometry width="50" height="50" relative="1" as="geometry">
            <mxPoint x="29.66666666666663" y="433.0000000000001" as="sourcePoint" />
            <mxPoint x="159.5" y="433.0000000000001" as="targetPoint" />
          </mxGeometry>
        </mxCell>
        <mxCell id="jM_k1SBDohhX2evHbiHx-73" value="&lt;span style=&quot;font-family: &amp;#34;helvetica&amp;#34;&quot;&gt;11: Стан()&lt;/span&gt;" style="text;html=1;align=center;verticalAlign=middle;resizable=0;points=[];autosize=1;" vertex="1" parent="1">
          <mxGeometry x="60" y="415" width="70" height="20" as="geometry" />
        </mxCell>
        <mxCell id="jM_k1SBDohhX2evHbiHx-76" value="" style="endArrow=classic;html=1;exitX=1;exitY=0.5;exitDx=0;exitDy=0;" edge="1" parent="1">
          <mxGeometry width="50" height="50" relative="1" as="geometry">
            <mxPoint x="165" y="432.0000000000001" as="sourcePoint" />
            <mxPoint x="309.5" y="432.0000000000001" as="targetPoint" />
          </mxGeometry>
        </mxCell>
        <mxCell id="jM_k1SBDohhX2evHbiHx-77" value="&lt;span style=&quot;color: rgb(0 , 0 , 0) ; font-family: &amp;#34;helvetica&amp;#34; ; font-size: 12px ; font-style: normal ; font-weight: normal ; letter-spacing: normal ; text-align: center ; text-indent: 0px ; text-transform: none ; word-spacing: 0px ; background-color: rgb(248 , 249 , 250) ; text-decoration: none ; display: inline ; float: none&quot;&gt;12: Стан()&lt;/span&gt;" style="text;whiteSpace=wrap;html=1;" vertex="1" parent="1">
          <mxGeometry x="200" y="410" width="80" height="30" as="geometry" />
        </mxCell>
        <mxCell id="jM_k1SBDohhX2evHbiHx-79" value="" style="rounded=0;whiteSpace=wrap;html=1;" vertex="1" parent="1">
          <mxGeometry x="465" y="435" width="10" height="30" as="geometry" />
        </mxCell>
        <mxCell id="jM_k1SBDohhX2evHbiHx-80" value="" style="endArrow=classic;html=1;entryX=0;entryY=0.5;entryDx=0;entryDy=0;" edge="1" parent="1">
          <mxGeometry width="50" height="50" relative="1" as="geometry">
            <mxPoint x="313" y="438" as="sourcePoint" />
            <mxPoint x="465" y="438" as="targetPoint" />
          </mxGeometry>
        </mxCell>
        <mxCell id="jM_k1SBDohhX2evHbiHx-82" value="" style="endArrow=classic;html=1;entryX=0.75;entryY=0;entryDx=0;entryDy=0;" edge="1" parent="1" source="jM_k1SBDohhX2evHbiHx-32" target="jM_k1SBDohhX2evHbiHx-46">
          <mxGeometry width="50" height="50" relative="1" as="geometry">
            <mxPoint x="465" y="466" as="sourcePoint" />
            <mxPoint x="159.66666666666652" y="462" as="targetPoint" />
          </mxGeometry>
        </mxCell>
        <mxCell id="jM_k1SBDohhX2evHbiHx-83" value="&lt;span style=&quot;font-family: &amp;#34;helvetica&amp;#34;&quot;&gt;13: Стан()&lt;/span&gt;" style="text;html=1;align=center;verticalAlign=middle;resizable=0;points=[];autosize=1;" vertex="1" parent="1">
          <mxGeometry x="360" y="420" width="70" height="20" as="geometry" />
        </mxCell>
        <mxCell id="jM_k1SBDohhX2evHbiHx-85" value="" style="html=1;verticalAlign=bottom;endArrow=open;dashed=1;endSize=8;" edge="1" parent="1" target="jM_k1SBDohhX2evHbiHx-29">
          <mxGeometry relative="1" as="geometry">
            <mxPoint x="153.66" y="496" as="sourcePoint" />
            <mxPoint x="49.99666666666663" y="495.99999999999994" as="targetPoint" />
          </mxGeometry>
        </mxCell>
        <mxCell id="jM_k1SBDohhX2evHbiHx-86" value="&lt;span style=&quot;font-family: &amp;#34;helvetica&amp;#34;&quot;&gt;15: Стан&lt;/span&gt;" style="text;html=1;align=center;verticalAlign=middle;resizable=0;points=[];autosize=1;" vertex="1" parent="1">
          <mxGeometry x="60" y="500" width="60" height="20" as="geometry" />
        </mxCell>
        <mxCell id="jM_k1SBDohhX2evHbiHx-92" value="" style="endArrow=classic;html=1;entryX=0.25;entryY=0;entryDx=0;entryDy=0;" edge="1" parent="1" target="jM_k1SBDohhX2evHbiHx-47">
          <mxGeometry width="50" height="50" relative="1" as="geometry">
            <mxPoint x="30.086666666666627" y="578" as="sourcePoint" />
            <mxPoint x="150" y="578" as="targetPoint" />
          </mxGeometry>
        </mxCell>
        <mxCell id="jM_k1SBDohhX2evHbiHx-93" value="&lt;span style=&quot;font-family: &amp;#34;helvetica&amp;#34;&quot;&gt;16: Оплата()&lt;/span&gt;" style="text;html=1;align=center;verticalAlign=middle;resizable=0;points=[];autosize=1;" vertex="1" parent="1">
          <mxGeometry x="50" y="560" width="90" height="20" as="geometry" />
        </mxCell>
        <mxCell id="jM_k1SBDohhX2evHbiHx-96" value="" style="endArrow=classic;html=1;" edge="1" parent="1" target="jM_k1SBDohhX2evHbiHx-31">
          <mxGeometry width="50" height="50" relative="1" as="geometry">
            <mxPoint x="166.29666666666657" y="600" as="sourcePoint" />
            <mxPoint x="293.71" y="600" as="targetPoint" />
          </mxGeometry>
        </mxCell>
        <mxCell id="jM_k1SBDohhX2evHbiHx-97" value="&lt;span style=&quot;color: rgb(0 , 0 , 0) ; font-family: &amp;#34;helvetica&amp;#34; ; font-size: 12px ; font-style: normal ; font-weight: normal ; letter-spacing: normal ; text-align: center ; text-indent: 0px ; text-transform: none ; word-spacing: 0px ; background-color: rgb(248 , 249 , 250) ; text-decoration: none ; display: inline ; float: none&quot;&gt;17: Оплата()&lt;/span&gt;" style="text;whiteSpace=wrap;html=1;" vertex="1" parent="1">
          <mxGeometry x="205" y="575" width="100" height="30" as="geometry" />
        </mxCell>
        <mxCell id="jM_k1SBDohhX2evHbiHx-98" value="" style="rounded=0;whiteSpace=wrap;html=1;" vertex="1" parent="1">
          <mxGeometry x="465" y="620" width="10" height="30" as="geometry" />
        </mxCell>
        <mxCell id="jM_k1SBDohhX2evHbiHx-99" value="" style="endArrow=classic;html=1;exitX=1;exitY=1;exitDx=0;exitDy=0;" edge="1" parent="1" source="jM_k1SBDohhX2evHbiHx-95" target="jM_k1SBDohhX2evHbiHx-32">
          <mxGeometry width="50" height="50" relative="1" as="geometry">
            <mxPoint x="325" y="621" as="sourcePoint" />
            <mxPoint x="438.2" y="626.42" as="targetPoint" />
          </mxGeometry>
        </mxCell>
        <mxCell id="jM_k1SBDohhX2evHbiHx-100" value="&lt;span style=&quot;font-family: &amp;#34;helvetica&amp;#34;&quot;&gt;18: Оплата()&lt;/span&gt;" style="text;html=1;align=center;verticalAlign=middle;resizable=0;points=[];autosize=1;" vertex="1" parent="1">
          <mxGeometry x="350" y="605" width="90" height="20" as="geometry" />
        </mxCell>
        <mxCell id="jM_k1SBDohhX2evHbiHx-102" value="" style="endArrow=classic;html=1;" edge="1" parent="1" target="jM_k1SBDohhX2evHbiHx-31">
          <mxGeometry width="50" height="50" relative="1" as="geometry">
            <mxPoint x="464.99666666666656" y="650" as="sourcePoint" />
            <mxPoint x="412.40999999999997" y="650" as="targetPoint" />
          </mxGeometry>
        </mxCell>
        <mxCell id="jM_k1SBDohhX2evHbiHx-103" value="&lt;span style=&quot;color: rgb(0 , 0 , 0) ; font-family: &amp;#34;helvetica&amp;#34; ; font-size: 12px ; font-style: normal ; font-weight: normal ; letter-spacing: normal ; text-align: center ; text-indent: 0px ; text-transform: none ; word-spacing: 0px ; background-color: rgb(248 , 249 , 250) ; text-decoration: none ; display: inline ; float: none&quot;&gt;19: Оплачено()&lt;/span&gt;" style="text;whiteSpace=wrap;html=1;" vertex="1" parent="1">
          <mxGeometry x="350" y="650" width="100" height="30" as="geometry" />
        </mxCell>
        <mxCell id="jM_k1SBDohhX2evHbiHx-104" value="" style="endArrow=classic;html=1;" edge="1" parent="1" target="jM_k1SBDohhX2evHbiHx-32">
          <mxGeometry width="50" height="50" relative="1" as="geometry">
            <mxPoint x="322.5866666666666" y="680" as="sourcePoint" />
            <mxPoint x="450" y="680" as="targetPoint" />
          </mxGeometry>
        </mxCell>
        <mxCell id="jM_k1SBDohhX2evHbiHx-106" value="&lt;span style=&quot;color: rgb(0 , 0 , 0) ; font-family: &amp;#34;helvetica&amp;#34; ; font-size: 12px ; font-style: normal ; font-weight: normal ; letter-spacing: normal ; text-align: center ; text-indent: 0px ; text-transform: none ; word-spacing: 0px ; background-color: rgb(248 , 249 , 250) ; text-decoration: none ; display: inline ; float: none&quot;&gt;20: Доставка()&lt;/span&gt;" style="text;whiteSpace=wrap;html=1;" vertex="1" parent="1">
          <mxGeometry x="355" y="680" width="110" height="30" as="geometry" />
        </mxCell>
        <mxCell id="jM_k1SBDohhX2evHbiHx-108" value="" style="endArrow=classic;html=1;" edge="1" parent="1" target="jM_k1SBDohhX2evHbiHx-33">
          <mxGeometry width="50" height="50" relative="1" as="geometry">
            <mxPoint x="474.99666666666656" y="710" as="sourcePoint" />
            <mxPoint x="532.41" y="710" as="targetPoint" />
          </mxGeometry>
        </mxCell>
        <mxCell id="jM_k1SBDohhX2evHbiHx-109" value="&lt;span style=&quot;font-family: &amp;#34;helvetica&amp;#34; ; text-align: center&quot;&gt;&amp;nbsp; &amp;nbsp; &amp;nbsp;&amp;lt;&amp;lt;create&amp;gt;&amp;gt;&lt;/span&gt;&lt;br style=&quot;font-family: &amp;#34;helvetica&amp;#34; ; text-align: center&quot;&gt;&lt;span style=&quot;font-family: &amp;#34;helvetica&amp;#34; ; text-align: center&quot;&gt;21: Доставка()&lt;/span&gt;" style="text;whiteSpace=wrap;html=1;" vertex="1" parent="1">
          <mxGeometry x="475" y="670" width="110" height="30" as="geometry" />
        </mxCell>
        <mxCell id="jM_k1SBDohhX2evHbiHx-110" value="" style="html=1;verticalAlign=bottom;endArrow=open;dashed=1;endSize=8;" edge="1" parent="1" target="jM_k1SBDohhX2evHbiHx-29">
          <mxGeometry relative="1" as="geometry">
            <mxPoint x="559.5" y="760" as="sourcePoint" />
            <mxPoint x="399.9966666666666" y="760" as="targetPoint" />
          </mxGeometry>
        </mxCell>
        <mxCell id="jM_k1SBDohhX2evHbiHx-111" value="&lt;span style=&quot;color: rgb(0 , 0 , 0) ; font-family: &amp;#34;helvetica&amp;#34; ; font-size: 12px ; font-style: normal ; font-weight: normal ; letter-spacing: normal ; text-align: center ; text-indent: 0px ; text-transform: none ; word-spacing: 0px ; background-color: rgb(248 , 249 , 250) ; text-decoration: none ; display: inline ; float: none&quot;&gt;22: Доставка()&lt;/span&gt;" style="text;whiteSpace=wrap;html=1;" vertex="1" parent="1">
          <mxGeometry x="220" y="760" width="110" height="30" as="geometry" />
        </mxCell>
      </root>
    </mxGraphModel>
  </diagram>
</mxfile>
